<svg xmlns="http://www.w3.org/2000/svg" xmlns:xlink="http://www.w3.org/1999/xlink" width="1280" zoomAndPan="magnify" viewBox="0 0 960 599.999999" height="800" preserveAspectRatio="xMidYMid meet" version="1.0"><defs><filter x="0%" y="0%" width="100%" height="100%" id="b5d79feefd"><feColorMatrix values="0 0 0 0 1 0 0 0 0 1 0 0 0 0 1 0 0 0 1 0" color-interpolation-filters="sRGB"/></filter><g/><mask id="23ef45ff45"><g filter="url(#b5d79feefd)"><rect x="-96" width="1152" fill="#000000" y="-60" height="719.999999" fill-opacity="0.5294"/></g></mask><clipPath id="58728e3b4b"><path d="M 0.675781 0 L 959 0 L 959 600 L 0.675781 600 Z M 0.675781 0 " clip-rule="nonzero"/></clipPath><clipPath id="eefd5f80c6"><rect x="0" width="960" y="0" height="600"/></clipPath><clipPath id="4b889417ab"><path d="M 416.800781 89 L 543.550781 89 L 543.550781 197.527344 L 416.800781 197.527344 Z M 416.800781 89 " clip-rule="nonzero"/></clipPath></defs><rect x="-96" width="1152" fill="#ffffff" y="-60" height="719.999999" fill-opacity="1"/><rect x="-96" width="1152" fill="#ffffff" y="-60" height="719.999999" fill-opacity="1"/><rect x="-96" width="1152" fill="#f1ada7" y="-60" height="719.999999" fill-opacity="1"/><g mask="url(#23ef45ff45)"><g transform="matrix(1, 0, 0, 1, 0, -0.000000000000034788)"><g clip-path="url(#eefd5f80c6)"><g clip-path="url(#58728e3b4b)"><path fill="#191919" d="M 0.675781 0 L 958.421875 0 L 958.421875 599.710938 L 0.675781 599.710938 Z M 0.675781 0 " fill-opacity="1" fill-rule="nonzero"/></g></g></g></g><g fill="#f5f5ef" fill-opacity="1"><g transform="translate(331.205185, 248.935589)"><g><path d="M 1.953125 -31.570312 L 1.953125 -8.332031 C 1.953125 -7.679688 2.34375 -7.03125 2.734375 -6.640625 L 8.59375 -0.78125 C 9.179688 -0.195312 9.699219 0 10.480469 0 L 27.46875 0 C 27.992188 0 28.445312 -0.457031 28.445312 -0.976562 L 28.445312 -5.46875 C 28.445312 -5.988281 27.992188 -6.445312 27.46875 -6.445312 L 12.5 -6.445312 C 12.171875 -6.445312 11.914062 -6.574219 11.523438 -6.964844 L 9.242188 -9.113281 C 8.917969 -9.4375 8.789062 -9.765625 8.789062 -10.21875 L 8.789062 -31.570312 C 8.789062 -32.09375 8.332031 -32.546875 7.8125 -32.546875 L 2.929688 -32.546875 C 2.410156 -32.546875 1.953125 -32.09375 1.953125 -31.570312 Z M 1.953125 -31.570312 "/></g></g></g><g fill="#ff9a92" fill-opacity="1"><g transform="translate(361.595279, 248.935589)"><g><path d="M 30.726562 -23.5625 L 24.996094 -29.421875 C 24.476562 -29.945312 23.890625 -30.203125 23.042969 -30.203125 L 10.351562 -30.203125 C 9.503906 -30.203125 8.917969 -29.945312 8.398438 -29.421875 L 2.667969 -23.5625 C 2.214844 -23.109375 1.953125 -22.523438 1.953125 -21.871094 L 1.953125 -0.976562 C 1.953125 -0.457031 2.410156 0 2.929688 0 L 7.289062 0 C 7.8125 0 8.265625 -0.457031 8.265625 -0.976562 L 8.265625 -7.160156 L 25.125 -7.160156 L 25.125 -0.976562 C 25.125 -0.457031 25.582031 0 26.101562 0 L 30.464844 0 C 30.984375 0 31.441406 -0.457031 31.441406 -0.976562 L 31.441406 -21.871094 C 31.441406 -22.523438 31.179688 -23.109375 30.726562 -23.5625 Z M 8.265625 -12.824219 L 8.265625 -20.179688 C 8.265625 -20.636719 8.398438 -20.960938 8.722656 -21.285156 L 10.804688 -23.238281 L 11.195312 -23.5625 C 11.328125 -23.695312 11.523438 -23.757812 11.847656 -23.757812 L 21.546875 -23.757812 C 21.808594 -23.757812 22.003906 -23.695312 22.199219 -23.5625 L 22.589844 -23.238281 L 24.671875 -21.285156 C 24.996094 -20.960938 25.125 -20.636719 25.125 -20.179688 L 25.125 -12.824219 Z M 8.265625 -12.824219 "/></g></g></g><g fill="#f5f5ef" fill-opacity="1"><g transform="translate(394.983911, 248.935589)"><g><path d="M 33.847656 -29.226562 C 33.847656 -29.75 33.394531 -30.203125 32.875 -30.203125 L 2.929688 -30.203125 C 2.410156 -30.203125 1.953125 -29.75 1.953125 -29.226562 L 1.953125 -24.996094 C 1.953125 -24.476562 2.410156 -24.019531 2.929688 -24.019531 L 23.5625 -24.019531 L 2.34375 -5.988281 C 2.148438 -5.792969 1.953125 -5.53125 1.953125 -5.207031 L 1.953125 -0.976562 C 1.953125 -0.457031 2.410156 0 2.929688 0 L 32.875 0 C 33.394531 0 33.847656 -0.457031 33.847656 -0.976562 L 33.847656 -5.207031 C 33.847656 -5.726562 33.394531 -6.183594 32.875 -6.183594 L 12.367188 -6.183594 L 33.328125 -24.148438 C 33.457031 -24.214844 33.523438 -24.28125 33.589844 -24.410156 L 33.652344 -24.410156 C 33.785156 -24.605469 33.847656 -24.800781 33.847656 -24.996094 Z M 33.847656 -29.226562 "/></g></g></g><g fill="#f5f5ef" fill-opacity="1"><g transform="translate(430.785609, 248.935589)"><g><path d="M 30.464844 -30.203125 L 26.101562 -30.203125 C 25.582031 -30.203125 25.125 -29.75 25.125 -29.226562 L 25.125 -19.984375 C 25.125 -19.527344 24.996094 -19.269531 24.671875 -18.878906 L 21.285156 -14.320312 L 20.894531 -13.996094 C 20.699219 -13.867188 20.503906 -13.800781 20.246094 -13.800781 L 13.148438 -13.800781 C 12.824219 -13.800781 12.628906 -13.867188 12.5 -13.996094 L 12.109375 -14.320312 L 8.722656 -18.878906 C 8.398438 -19.269531 8.265625 -19.527344 8.265625 -19.984375 L 8.265625 -29.226562 C 8.265625 -29.75 7.8125 -30.203125 7.289062 -30.203125 L 2.929688 -30.203125 C 2.410156 -30.203125 1.953125 -29.75 1.953125 -29.226562 L 1.953125 -18.292969 C 1.953125 -17.640625 2.214844 -17.121094 2.667969 -16.597656 L 9.699219 -8.136719 C 10.15625 -7.550781 10.804688 -7.355469 11.652344 -7.355469 L 13.28125 -7.355469 L 13.28125 -0.976562 C 13.28125 -0.457031 13.734375 0 14.253906 0 L 19.136719 0 C 19.660156 0 20.113281 -0.457031 20.113281 -0.976562 L 20.113281 -7.355469 L 21.742188 -7.355469 C 22.589844 -7.355469 23.238281 -7.550781 23.695312 -8.136719 L 30.726562 -16.597656 C 31.179688 -17.121094 31.441406 -17.640625 31.441406 -18.292969 L 31.441406 -29.226562 C 31.441406 -29.75 30.984375 -30.203125 30.464844 -30.203125 Z M 30.464844 -30.203125 "/></g></g></g><g fill="#f5f5ef" fill-opacity="1"><g transform="translate(464.178832, 248.935589)"><g/></g></g><g fill="#f5f5ef" fill-opacity="1"><g transform="translate(481.103268, 248.935589)"><g><path d="M 30.726562 -25.90625 L 24.996094 -31.765625 C 24.476562 -32.289062 23.890625 -32.546875 23.042969 -32.546875 L 10.351562 -32.546875 C 9.503906 -32.546875 8.917969 -32.289062 8.398438 -31.765625 L 2.667969 -25.90625 C 2.214844 -25.453125 1.953125 -24.867188 1.953125 -24.214844 L 1.953125 -0.976562 C 1.953125 -0.457031 2.410156 0 2.929688 0 L 7.289062 0 C 7.8125 0 8.265625 -0.457031 8.265625 -0.976562 L 8.265625 -10.675781 L 25.125 -10.675781 L 25.125 -0.976562 C 25.125 -0.457031 25.582031 0 26.101562 0 L 30.464844 0 C 30.984375 0 31.441406 -0.457031 31.441406 -0.976562 L 31.441406 -24.214844 C 31.441406 -24.867188 31.179688 -25.453125 30.726562 -25.90625 Z M 8.265625 -16.339844 L 8.265625 -22.523438 C 8.265625 -22.980469 8.398438 -23.304688 8.722656 -23.628906 L 10.804688 -25.582031 L 11.195312 -25.90625 C 11.328125 -26.039062 11.523438 -26.101562 11.847656 -26.101562 L 21.546875 -26.101562 C 21.808594 -26.101562 22.003906 -26.039062 22.199219 -25.90625 L 22.589844 -25.582031 L 24.671875 -23.628906 C 24.996094 -23.304688 25.125 -22.980469 25.125 -22.523438 L 25.125 -16.339844 Z M 8.265625 -16.339844 "/></g></g></g><g fill="#f5f5ef" fill-opacity="1"><g transform="translate(514.49649, 248.935589)"><g><path d="M 31.441406 -14.0625 L 31.441406 -21.808594 C 31.441406 -22.652344 31.179688 -23.238281 30.660156 -23.757812 L 24.800781 -29.488281 C 24.34375 -29.945312 23.757812 -30.203125 23.109375 -30.203125 L 2.929688 -30.203125 C 2.410156 -30.203125 1.953125 -29.75 1.953125 -29.226562 L 1.953125 -0.976562 C 1.953125 -0.457031 2.410156 0 2.929688 0 L 7.421875 0 C 7.941406 0 8.398438 -0.457031 8.398438 -0.976562 L 8.398438 -5.726562 L 21.285156 -5.726562 L 24.476562 -0.585938 C 24.734375 -0.195312 25.0625 0 25.453125 0 L 30.335938 0 C 31.117188 0 31.507812 -0.714844 31.117188 -1.367188 L 26.6875 -8.398438 L 30.660156 -12.367188 C 31.050781 -12.757812 31.441406 -13.410156 31.441406 -14.0625 Z M 8.398438 -23.890625 L 21.027344 -23.890625 C 21.480469 -23.890625 21.808594 -23.757812 22.132812 -23.433594 L 24.085938 -21.351562 L 24.410156 -20.960938 C 24.539062 -20.765625 24.605469 -20.570312 24.605469 -20.308594 L 24.605469 -15.753906 C 24.605469 -15.296875 24.476562 -14.972656 24.148438 -14.644531 L 22.066406 -12.695312 C 21.675781 -12.304688 21.417969 -12.171875 21.089844 -12.171875 L 8.398438 -12.171875 Z M 8.398438 -23.890625 "/></g></g></g><g fill="#f5f5ef" fill-opacity="1"><g transform="translate(547.889712, 248.935589)"><g><path d="M 33.847656 -30.203125 L 2.929688 -30.203125 C 2.410156 -30.203125 1.953125 -29.75 1.953125 -29.226562 L 1.953125 -24.34375 C 1.953125 -23.824219 2.410156 -23.371094 2.929688 -23.371094 L 15.035156 -23.371094 L 15.035156 -0.976562 C 15.035156 -0.457031 15.492188 0 16.011719 0 L 20.894531 0 C 21.417969 0 21.871094 -0.457031 21.871094 -0.976562 L 21.871094 -23.371094 L 33.847656 -23.371094 C 34.371094 -23.371094 34.824219 -23.824219 34.824219 -24.34375 L 34.824219 -29.226562 C 34.824219 -29.75 34.371094 -30.203125 33.847656 -30.203125 Z M 33.847656 -30.203125 "/></g></g></g><g fill="#ff9a92" fill-opacity="1"><g transform="translate(584.664459, 248.935589)"><g><path d="M 2.929688 0 L 7.8125 0 C 8.332031 0 8.789062 -0.457031 8.789062 -0.976562 L 8.789062 -29.226562 C 8.789062 -29.75 8.332031 -30.203125 7.8125 -30.203125 L 2.929688 -30.203125 C 2.410156 -30.203125 1.953125 -29.75 1.953125 -29.226562 L 1.953125 -0.976562 C 1.953125 -0.457031 2.410156 0 2.929688 0 Z M 2.929688 0 "/></g></g></g><g fill="#f5f5ef" fill-opacity="1"><g transform="translate(595.398487, 248.935589)"><g><path d="M 1.953125 -18.941406 C 1.953125 -18.097656 2.214844 -17.511719 2.734375 -16.988281 L 7.289062 -12.5625 C 7.746094 -12.171875 8.332031 -11.847656 8.984375 -11.847656 L 22.328125 -11.847656 C 22.785156 -11.847656 23.109375 -11.71875 23.433594 -11.390625 L 24.410156 -10.21875 C 24.539062 -10.023438 24.605469 -9.828125 24.605469 -9.570312 L 24.605469 -8.722656 C 24.605469 -8.265625 24.476562 -7.941406 24.148438 -7.617188 L 23.371094 -6.964844 C 22.980469 -6.640625 22.71875 -6.445312 22.394531 -6.445312 L 4.035156 -6.445312 C 3.515625 -6.445312 3.058594 -5.988281 3.058594 -5.46875 L 3.058594 -0.976562 C 3.058594 -0.457031 3.515625 0 4.035156 0 L 24.214844 0 C 24.996094 0 25.515625 -0.195312 26.101562 -0.78125 L 30.660156 -5.335938 C 31.050781 -5.726562 31.441406 -6.378906 31.441406 -7.03125 L 31.441406 -11.71875 C 31.441406 -12.5625 31.179688 -13.214844 30.660156 -13.671875 L 26.753906 -17.445312 C 26.296875 -17.835938 25.710938 -18.160156 25.0625 -18.160156 L 11.066406 -18.160156 C 10.609375 -18.160156 10.285156 -18.292969 9.960938 -18.617188 L 8.984375 -19.789062 C 8.851562 -19.984375 8.789062 -20.179688 8.789062 -20.441406 L 8.789062 -21.351562 C 8.789062 -21.808594 8.917969 -22.132812 9.242188 -22.457031 L 10.21875 -23.238281 C 10.609375 -23.5625 10.871094 -23.757812 11.195312 -23.757812 L 28.707031 -23.757812 C 29.226562 -23.757812 29.683594 -24.214844 29.683594 -24.734375 L 29.683594 -29.226562 C 29.683594 -29.75 29.226562 -30.203125 28.707031 -30.203125 L 9.375 -30.203125 C 8.59375 -30.203125 8.070312 -30.007812 7.484375 -29.421875 L 2.734375 -24.734375 C 2.34375 -24.34375 1.953125 -23.695312 1.953125 -23.042969 Z M 1.953125 -18.941406 "/></g></g></g><g clip-path="url(#4b889417ab)"><path fill="#ffffff" d="M 511.863281 162.714844 C 511.863281 167.972656 507.609375 172.226562 502.355469 172.226562 C 497.109375 172.226562 492.855469 167.972656 492.855469 162.714844 C 492.855469 157.460938 497.109375 153.207031 502.355469 153.207031 C 507.609375 153.207031 511.863281 157.460938 511.863281 162.714844 Z M 467.503906 162.714844 C 467.503906 167.972656 463.238281 172.226562 457.996094 172.226562 C 452.742188 172.226562 448.488281 167.972656 448.488281 162.714844 C 448.488281 157.460938 452.742188 153.207031 457.996094 153.207031 C 463.238281 153.207031 467.503906 157.460938 467.503906 162.714844 Z M 524.542969 178.5625 C 524.535156 185.5625 518.863281 191.238281 511.863281 191.238281 L 448.488281 191.238281 C 441.488281 191.238281 435.816406 185.5625 435.816406 178.5625 L 435.816406 146.867188 C 435.816406 139.867188 441.488281 134.195312 448.488281 134.183594 L 511.863281 134.183594 C 518.863281 134.195312 524.535156 139.867188 524.542969 146.867188 Z M 534.042969 153.207031 L 530.867188 153.207031 L 530.867188 146.867188 C 530.867188 136.367188 522.363281 127.847656 511.863281 127.847656 L 486.511719 127.847656 L 486.511719 113.417969 C 492.574219 109.917969 494.65625 102.164062 491.148438 96.097656 C 487.648438 90.03125 479.90625 87.957031 473.839844 91.460938 C 467.773438 94.960938 465.691406 102.714844 469.203125 108.769531 C 470.308594 110.707031 471.914062 112.304688 473.839844 113.417969 L 473.839844 127.847656 L 448.488281 127.847656 C 437.988281 127.847656 429.472656 136.367188 429.472656 146.867188 L 429.472656 153.207031 L 426.308594 153.207031 C 421.054688 153.207031 416.800781 157.460938 416.800781 162.714844 C 416.800781 167.972656 421.054688 172.226562 426.308594 172.226562 L 429.472656 172.226562 L 429.472656 178.5625 C 429.472656 189.0625 437.988281 197.585938 448.488281 197.585938 L 511.863281 197.585938 C 522.363281 197.585938 530.867188 189.0625 530.867188 178.5625 L 530.867188 172.226562 L 534.042969 172.226562 C 539.296875 172.226562 543.550781 167.972656 543.550781 162.714844 C 543.550781 157.460938 539.296875 153.207031 534.042969 153.207031 " fill-opacity="1" fill-rule="nonzero"/></g><g fill="#ffffff" fill-opacity="1"><g transform="translate(368.168745, 274.511502)"><g><path d="M 6.671875 -4.484375 C 6.671875 -3.890625 6.609375 -3.3125 6.484375 -2.75 C 6.359375 -2.1875 6.160156 -1.691406 5.890625 -1.265625 C 5.617188 -0.835938 5.265625 -0.492188 4.828125 -0.234375 C 4.390625 0.0234375 3.851562 0.15625 3.21875 0.15625 C 2.59375 0.15625 2.054688 0.0234375 1.609375 -0.234375 C 1.171875 -0.492188 0.816406 -0.835938 0.546875 -1.265625 C 0.273438 -1.691406 0.078125 -2.1875 -0.046875 -2.75 C -0.171875 -3.3125 -0.234375 -3.890625 -0.234375 -4.484375 C -0.234375 -5.085938 -0.171875 -5.671875 -0.046875 -6.234375 C 0.078125 -6.796875 0.273438 -7.289062 0.546875 -7.71875 C 0.828125 -8.15625 1.1875 -8.503906 1.625 -8.765625 C 2.070312 -9.023438 2.601562 -9.15625 3.21875 -9.15625 C 3.84375 -9.15625 4.375 -9.023438 4.8125 -8.765625 C 5.25 -8.503906 5.601562 -8.15625 5.875 -7.71875 C 6.144531 -7.289062 6.34375 -6.796875 6.46875 -6.234375 C 6.601562 -5.671875 6.671875 -5.085938 6.671875 -4.484375 Z M 5.71875 -4.484375 C 5.71875 -5.078125 5.660156 -5.613281 5.546875 -6.09375 C 5.429688 -6.570312 5.269531 -6.976562 5.0625 -7.3125 C 4.851562 -7.644531 4.59375 -7.898438 4.28125 -8.078125 C 3.96875 -8.253906 3.613281 -8.34375 3.21875 -8.34375 C 2.726562 -8.34375 2.320312 -8.226562 2 -8 C 1.6875 -7.769531 1.429688 -7.46875 1.234375 -7.09375 C 1.035156 -6.71875 0.898438 -6.300781 0.828125 -5.84375 C 0.753906 -5.394531 0.71875 -4.941406 0.71875 -4.484375 C 0.71875 -4.035156 0.753906 -3.582031 0.828125 -3.125 C 0.898438 -2.664062 1.035156 -2.253906 1.234375 -1.890625 C 1.429688 -1.523438 1.6875 -1.222656 2 -0.984375 C 2.320312 -0.753906 2.726562 -0.640625 3.21875 -0.640625 C 3.707031 -0.640625 4.113281 -0.753906 4.4375 -0.984375 C 4.757812 -1.222656 5.015625 -1.523438 5.203125 -1.890625 C 5.398438 -2.253906 5.535156 -2.664062 5.609375 -3.125 C 5.679688 -3.582031 5.71875 -4.035156 5.71875 -4.484375 Z M 5.71875 -4.484375 "/></g></g><g transform="translate(375.881243, 274.511502)"><g><path d="M 6.078125 -5.53125 C 5.734375 -5.695312 5.328125 -5.78125 4.859375 -5.78125 C 4.472656 -5.78125 4.128906 -5.695312 3.828125 -5.53125 C 3.523438 -5.363281 3.265625 -5.144531 3.046875 -4.875 C 2.835938 -4.601562 2.675781 -4.296875 2.5625 -3.953125 C 2.457031 -3.609375 2.40625 -3.253906 2.40625 -2.890625 L 2.40625 -0.8125 L 3.859375 -0.8125 L 3.859375 0 L 0 0 L 0 -0.8125 L 1.453125 -0.8125 L 1.453125 -5.625 L 0 -5.625 L 0 -6.421875 L 2.40625 -6.421875 L 2.40625 -4.8125 C 2.832031 -5.988281 3.648438 -6.578125 4.859375 -6.578125 C 5.191406 -6.578125 5.476562 -6.554688 5.71875 -6.515625 C 5.957031 -6.472656 6.179688 -6.398438 6.390625 -6.296875 Z M 6.078125 -5.53125 "/></g></g><g transform="translate(383.593741, 274.511502)"><g><path d="M 3.859375 -7.703125 L 2.578125 -7.703125 L 2.578125 -9 L 3.859375 -9 Z M 5.140625 0 L 1.28125 0 L 1.28125 -0.8125 L 2.734375 -0.8125 L 2.734375 -5.625 L 1.28125 -5.625 L 1.28125 -6.421875 L 3.6875 -6.421875 L 3.6875 -0.8125 L 5.140625 -0.8125 Z M 5.140625 0 "/></g></g><g transform="translate(391.306239, 274.511502)"><g><path d="M 6.09375 -0.0625 C 6.09375 0.375 6.015625 0.765625 5.859375 1.109375 C 5.710938 1.453125 5.5 1.742188 5.21875 1.984375 C 4.945312 2.222656 4.625 2.40625 4.25 2.53125 C 3.882812 2.65625 3.472656 2.71875 3.015625 2.71875 C 2.378906 2.71875 1.835938 2.597656 1.390625 2.359375 C 0.941406 2.117188 0.554688 1.773438 0.234375 1.328125 L 0.890625 0.828125 C 1.085938 1.117188 1.367188 1.363281 1.734375 1.5625 C 2.109375 1.769531 2.535156 1.875 3.015625 1.875 C 3.671875 1.875 4.1875 1.707031 4.5625 1.375 C 4.945312 1.050781 5.140625 0.578125 5.140625 -0.046875 L 5.140625 -0.734375 C 4.578125 -0.234375 3.9375 0.015625 3.21875 0.015625 C 2.207031 0.015625 1.414062 -0.269531 0.84375 -0.84375 C 0.269531 -1.414062 -0.015625 -2.203125 -0.015625 -3.203125 C -0.015625 -3.691406 0.0546875 -4.140625 0.203125 -4.546875 C 0.359375 -4.960938 0.570312 -5.320312 0.84375 -5.625 C 1.125 -5.925781 1.460938 -6.160156 1.859375 -6.328125 C 2.265625 -6.492188 2.71875 -6.578125 3.21875 -6.578125 C 3.570312 -6.578125 3.910156 -6.515625 4.234375 -6.390625 C 4.566406 -6.273438 4.867188 -6.09375 5.140625 -5.84375 L 5.140625 -6.421875 L 6.09375 -6.421875 Z M 5.140625 -4.9375 C 4.867188 -5.226562 4.570312 -5.441406 4.25 -5.578125 C 3.925781 -5.710938 3.582031 -5.78125 3.21875 -5.78125 C 2.84375 -5.78125 2.507812 -5.710938 2.21875 -5.578125 C 1.9375 -5.441406 1.703125 -5.257812 1.515625 -5.03125 C 1.328125 -4.800781 1.179688 -4.53125 1.078125 -4.21875 C 0.984375 -3.90625 0.9375 -3.566406 0.9375 -3.203125 C 0.9375 -2.472656 1.125 -1.890625 1.5 -1.453125 C 1.882812 -1.015625 2.457031 -0.796875 3.21875 -0.796875 C 3.582031 -0.796875 3.925781 -0.863281 4.25 -1 C 4.570312 -1.132812 4.867188 -1.351562 5.140625 -1.65625 Z M 5.140625 -4.9375 "/></g></g><g transform="translate(399.018737, 274.511502)"><g><path d="M 3.859375 -7.703125 L 2.578125 -7.703125 L 2.578125 -9 L 3.859375 -9 Z M 5.140625 0 L 1.28125 0 L 1.28125 -0.8125 L 2.734375 -0.8125 L 2.734375 -5.625 L 1.28125 -5.625 L 1.28125 -6.421875 L 3.6875 -6.421875 L 3.6875 -0.8125 L 5.140625 -0.8125 Z M 5.140625 0 "/></g></g><g transform="translate(406.731236, 274.511502)"><g><path d="M 6.09375 0 L 5.140625 0 L 5.140625 -3.96875 C 5.140625 -4.539062 5.015625 -4.984375 4.765625 -5.296875 C 4.515625 -5.617188 4.113281 -5.78125 3.5625 -5.78125 C 3.207031 -5.78125 2.890625 -5.695312 2.609375 -5.53125 C 2.328125 -5.375 2.085938 -5.160156 1.890625 -4.890625 C 1.691406 -4.617188 1.539062 -4.3125 1.4375 -3.96875 C 1.332031 -3.625 1.28125 -3.265625 1.28125 -2.890625 L 1.28125 0 L 0.34375 0 L 0.34375 -6.421875 L 1.28125 -6.421875 L 1.28125 -4.8125 C 1.738281 -5.988281 2.550781 -6.578125 3.71875 -6.578125 C 5.300781 -6.578125 6.09375 -5.707031 6.09375 -3.96875 Z M 6.09375 0 "/></g></g><g transform="translate(414.443734, 274.511502)"><g><path d="M -0.015625 -1.734375 C -0.015625 -2.140625 0.0820312 -2.476562 0.28125 -2.75 C 0.488281 -3.03125 0.753906 -3.25 1.078125 -3.40625 C 1.410156 -3.5625 1.789062 -3.675781 2.21875 -3.75 C 2.644531 -3.820312 3.078125 -3.859375 3.515625 -3.859375 C 3.679688 -3.859375 3.832031 -3.851562 3.96875 -3.84375 C 4.101562 -3.84375 4.234375 -3.835938 4.359375 -3.828125 C 4.484375 -3.816406 4.609375 -3.800781 4.734375 -3.78125 C 4.859375 -3.769531 4.992188 -3.757812 5.140625 -3.75 L 5.140625 -4.203125 C 5.140625 -4.515625 5.070312 -4.769531 4.9375 -4.96875 C 4.800781 -5.175781 4.632812 -5.335938 4.4375 -5.453125 C 4.238281 -5.578125 4.03125 -5.660156 3.8125 -5.703125 C 3.59375 -5.753906 3.410156 -5.78125 3.265625 -5.78125 C 2.785156 -5.78125 2.34375 -5.710938 1.9375 -5.578125 C 1.53125 -5.453125 1.15625 -5.28125 0.8125 -5.0625 L 0.375 -5.78125 C 0.757812 -6.007812 1.191406 -6.195312 1.671875 -6.34375 C 2.160156 -6.5 2.691406 -6.578125 3.265625 -6.578125 C 3.609375 -6.578125 3.945312 -6.53125 4.28125 -6.4375 C 4.625 -6.351562 4.929688 -6.21875 5.203125 -6.03125 C 5.472656 -5.84375 5.6875 -5.597656 5.84375 -5.296875 C 6.007812 -4.992188 6.09375 -4.628906 6.09375 -4.203125 L 6.09375 0 L 5.140625 0 L 5.140625 -1.078125 C 4.972656 -0.867188 4.785156 -0.6875 4.578125 -0.53125 C 4.367188 -0.375 4.148438 -0.242188 3.921875 -0.140625 C 3.691406 -0.046875 3.460938 0.0234375 3.234375 0.078125 C 3.003906 0.128906 2.785156 0.15625 2.578125 0.15625 C 1.722656 0.15625 1.078125 -0.00390625 0.640625 -0.328125 C 0.203125 -0.660156 -0.015625 -1.128906 -0.015625 -1.734375 Z M 2.578125 -0.640625 C 2.972656 -0.640625 3.328125 -0.695312 3.640625 -0.8125 C 3.953125 -0.9375 4.21875 -1.085938 4.4375 -1.265625 C 4.65625 -1.441406 4.828125 -1.628906 4.953125 -1.828125 C 5.078125 -2.023438 5.140625 -2.203125 5.140625 -2.359375 L 5.140625 -2.96875 C 4.828125 -3.007812 4.53125 -3.03125 4.25 -3.03125 C 3.96875 -3.039062 3.722656 -3.046875 3.515625 -3.046875 C 3.171875 -3.046875 2.84375 -3.019531 2.53125 -2.96875 C 2.21875 -2.925781 1.941406 -2.851562 1.703125 -2.75 C 1.472656 -2.644531 1.285156 -2.507812 1.140625 -2.34375 C 1.003906 -2.1875 0.9375 -1.984375 0.9375 -1.734375 C 0.9375 -1.460938 1.066406 -1.210938 1.328125 -0.984375 C 1.585938 -0.753906 2.003906 -0.640625 2.578125 -0.640625 Z M 2.578125 -0.640625 "/></g></g><g transform="translate(422.156232, 274.511502)"><g><path d="M 5.140625 0 L 1.28125 0 L 1.28125 -0.8125 L 2.734375 -0.8125 L 2.734375 -8.1875 L 1.28125 -8.1875 L 1.28125 -9 L 3.6875 -9 L 3.6875 -0.8125 L 5.140625 -0.8125 Z M 5.140625 0 "/></g></g><g transform="translate(429.86873, 274.511502)"><g/></g><g transform="translate(437.581228, 274.511502)"><g><path d="M -0.015625 -1.734375 C -0.015625 -2.140625 0.0820312 -2.476562 0.28125 -2.75 C 0.488281 -3.03125 0.753906 -3.25 1.078125 -3.40625 C 1.410156 -3.5625 1.789062 -3.675781 2.21875 -3.75 C 2.644531 -3.820312 3.078125 -3.859375 3.515625 -3.859375 C 3.679688 -3.859375 3.832031 -3.851562 3.96875 -3.84375 C 4.101562 -3.84375 4.234375 -3.835938 4.359375 -3.828125 C 4.484375 -3.816406 4.609375 -3.800781 4.734375 -3.78125 C 4.859375 -3.769531 4.992188 -3.757812 5.140625 -3.75 L 5.140625 -4.203125 C 5.140625 -4.515625 5.070312 -4.769531 4.9375 -4.96875 C 4.800781 -5.175781 4.632812 -5.335938 4.4375 -5.453125 C 4.238281 -5.578125 4.03125 -5.660156 3.8125 -5.703125 C 3.59375 -5.753906 3.410156 -5.78125 3.265625 -5.78125 C 2.785156 -5.78125 2.34375 -5.710938 1.9375 -5.578125 C 1.53125 -5.453125 1.15625 -5.28125 0.8125 -5.0625 L 0.375 -5.78125 C 0.757812 -6.007812 1.191406 -6.195312 1.671875 -6.34375 C 2.160156 -6.5 2.691406 -6.578125 3.265625 -6.578125 C 3.609375 -6.578125 3.945312 -6.53125 4.28125 -6.4375 C 4.625 -6.351562 4.929688 -6.21875 5.203125 -6.03125 C 5.472656 -5.84375 5.6875 -5.597656 5.84375 -5.296875 C 6.007812 -4.992188 6.09375 -4.628906 6.09375 -4.203125 L 6.09375 0 L 5.140625 0 L 5.140625 -1.078125 C 4.972656 -0.867188 4.785156 -0.6875 4.578125 -0.53125 C 4.367188 -0.375 4.148438 -0.242188 3.921875 -0.140625 C 3.691406 -0.046875 3.460938 0.0234375 3.234375 0.078125 C 3.003906 0.128906 2.785156 0.15625 2.578125 0.15625 C 1.722656 0.15625 1.078125 -0.00390625 0.640625 -0.328125 C 0.203125 -0.660156 -0.015625 -1.128906 -0.015625 -1.734375 Z M 2.578125 -0.640625 C 2.972656 -0.640625 3.328125 -0.695312 3.640625 -0.8125 C 3.953125 -0.9375 4.21875 -1.085938 4.4375 -1.265625 C 4.65625 -1.441406 4.828125 -1.628906 4.953125 -1.828125 C 5.078125 -2.023438 5.140625 -2.203125 5.140625 -2.359375 L 5.140625 -2.96875 C 4.828125 -3.007812 4.53125 -3.03125 4.25 -3.03125 C 3.96875 -3.039062 3.722656 -3.046875 3.515625 -3.046875 C 3.171875 -3.046875 2.84375 -3.019531 2.53125 -2.96875 C 2.21875 -2.925781 1.941406 -2.851562 1.703125 -2.75 C 1.472656 -2.644531 1.285156 -2.507812 1.140625 -2.34375 C 1.003906 -2.1875 0.9375 -1.984375 0.9375 -1.734375 C 0.9375 -1.460938 1.066406 -1.210938 1.328125 -0.984375 C 1.585938 -0.753906 2.003906 -0.640625 2.578125 -0.640625 Z M 2.578125 -0.640625 "/></g></g><g transform="translate(445.293727, 274.511502)"><g><path d="M 6.078125 -5.53125 C 5.734375 -5.695312 5.328125 -5.78125 4.859375 -5.78125 C 4.472656 -5.78125 4.128906 -5.695312 3.828125 -5.53125 C 3.523438 -5.363281 3.265625 -5.144531 3.046875 -4.875 C 2.835938 -4.601562 2.675781 -4.296875 2.5625 -3.953125 C 2.457031 -3.609375 2.40625 -3.253906 2.40625 -2.890625 L 2.40625 -0.8125 L 3.859375 -0.8125 L 3.859375 0 L 0 0 L 0 -0.8125 L 1.453125 -0.8125 L 1.453125 -5.625 L 0 -5.625 L 0 -6.421875 L 2.40625 -6.421875 L 2.40625 -4.8125 C 2.832031 -5.988281 3.648438 -6.578125 4.859375 -6.578125 C 5.191406 -6.578125 5.476562 -6.554688 5.71875 -6.515625 C 5.957031 -6.472656 6.179688 -6.398438 6.390625 -6.296875 Z M 6.078125 -5.53125 "/></g></g><g transform="translate(453.006225, 274.511502)"><g><path d="M 6.5 -2.046875 C 6.425781 -1.367188 6.160156 -0.832031 5.703125 -0.4375 C 5.242188 -0.0390625 4.671875 0.15625 3.984375 0.15625 C 3.609375 0.15625 3.265625 0.09375 2.953125 -0.03125 C 2.640625 -0.15625 2.375 -0.328125 2.15625 -0.546875 C 1.9375 -0.765625 1.765625 -1.03125 1.640625 -1.34375 C 1.515625 -1.65625 1.453125 -1.992188 1.453125 -2.359375 L 1.453125 -5.625 L 0 -5.625 L 0 -6.421875 L 1.453125 -6.421875 L 1.453125 -9 L 2.40625 -9 L 2.40625 -6.421875 L 5.140625 -6.421875 L 5.140625 -5.625 L 2.40625 -5.625 L 2.40625 -2.359375 C 2.40625 -2.117188 2.441406 -1.894531 2.515625 -1.6875 C 2.585938 -1.488281 2.691406 -1.3125 2.828125 -1.15625 C 2.960938 -1 3.125 -0.875 3.3125 -0.78125 C 3.507812 -0.6875 3.734375 -0.640625 3.984375 -0.640625 C 4.453125 -0.640625 4.84375 -0.785156 5.15625 -1.078125 C 5.476562 -1.378906 5.660156 -1.757812 5.703125 -2.21875 Z M 6.5 -2.046875 "/></g></g><g transform="translate(460.718723, 274.511502)"><g/></g><g transform="translate(468.431221, 274.511502)"><g><path d="M 6.421875 -5.625 L 3.6875 -5.625 L 3.6875 -0.8125 L 5.140625 -0.8125 L 5.140625 0 L 1.28125 0 L 1.28125 -0.8125 L 2.734375 -0.8125 L 2.734375 -5.625 L 1.28125 -5.625 L 1.28125 -6.421875 L 2.734375 -6.421875 C 2.734375 -7.304688 2.960938 -7.984375 3.421875 -8.453125 C 3.878906 -8.921875 4.570312 -9.15625 5.5 -9.15625 C 5.71875 -9.15625 5.898438 -9.144531 6.046875 -9.125 C 6.191406 -9.113281 6.316406 -9.097656 6.421875 -9.078125 L 6.421875 -8.28125 C 6.296875 -8.289062 6.160156 -8.300781 6.015625 -8.3125 C 5.867188 -8.332031 5.695312 -8.34375 5.5 -8.34375 C 4.894531 -8.34375 4.441406 -8.1875 4.140625 -7.875 C 3.835938 -7.570312 3.6875 -7.085938 3.6875 -6.421875 L 6.421875 -6.421875 Z M 6.421875 -5.625 "/></g></g><g transform="translate(476.143719, 274.511502)"><g><path d="M 6.59375 -3.1875 C 6.59375 -2.6875 6.515625 -2.234375 6.359375 -1.828125 C 6.203125 -1.421875 5.972656 -1.070312 5.671875 -0.78125 C 5.378906 -0.488281 5.023438 -0.257812 4.609375 -0.09375 C 4.191406 0.0703125 3.726562 0.15625 3.21875 0.15625 C 2.71875 0.15625 2.257812 0.0703125 1.84375 -0.09375 C 1.4375 -0.257812 1.082031 -0.488281 0.78125 -0.78125 C 0.488281 -1.070312 0.257812 -1.421875 0.09375 -1.828125 C -0.0625 -2.234375 -0.140625 -2.6875 -0.140625 -3.1875 C -0.140625 -3.675781 -0.0625 -4.128906 0.09375 -4.546875 C 0.257812 -4.972656 0.488281 -5.332031 0.78125 -5.625 C 1.082031 -5.925781 1.4375 -6.160156 1.84375 -6.328125 C 2.257812 -6.492188 2.71875 -6.578125 3.21875 -6.578125 C 3.726562 -6.578125 4.191406 -6.492188 4.609375 -6.328125 C 5.023438 -6.160156 5.378906 -5.925781 5.671875 -5.625 C 5.972656 -5.332031 6.203125 -4.972656 6.359375 -4.546875 C 6.515625 -4.128906 6.59375 -3.675781 6.59375 -3.1875 Z M 5.65625 -3.1875 C 5.65625 -3.5625 5.597656 -3.898438 5.484375 -4.203125 C 5.378906 -4.515625 5.21875 -4.785156 5 -5.015625 C 4.789062 -5.253906 4.535156 -5.441406 4.234375 -5.578125 C 3.929688 -5.710938 3.59375 -5.78125 3.21875 -5.78125 C 2.84375 -5.78125 2.503906 -5.710938 2.203125 -5.578125 C 1.898438 -5.441406 1.644531 -5.253906 1.4375 -5.015625 C 1.226562 -4.785156 1.070312 -4.515625 0.96875 -4.203125 C 0.863281 -3.898438 0.8125 -3.5625 0.8125 -3.1875 C 0.8125 -2.820312 0.863281 -2.484375 0.96875 -2.171875 C 1.070312 -1.859375 1.226562 -1.585938 1.4375 -1.359375 C 1.644531 -1.140625 1.898438 -0.960938 2.203125 -0.828125 C 2.503906 -0.703125 2.84375 -0.640625 3.21875 -0.640625 C 3.59375 -0.640625 3.929688 -0.703125 4.234375 -0.828125 C 4.535156 -0.960938 4.789062 -1.140625 5 -1.359375 C 5.21875 -1.585938 5.378906 -1.859375 5.484375 -2.171875 C 5.597656 -2.484375 5.65625 -2.820312 5.65625 -3.1875 Z M 5.65625 -3.1875 "/></g></g><g transform="translate(483.856217, 274.511502)"><g><path d="M 6.078125 -5.53125 C 5.734375 -5.695312 5.328125 -5.78125 4.859375 -5.78125 C 4.472656 -5.78125 4.128906 -5.695312 3.828125 -5.53125 C 3.523438 -5.363281 3.265625 -5.144531 3.046875 -4.875 C 2.835938 -4.601562 2.675781 -4.296875 2.5625 -3.953125 C 2.457031 -3.609375 2.40625 -3.253906 2.40625 -2.890625 L 2.40625 -0.8125 L 3.859375 -0.8125 L 3.859375 0 L 0 0 L 0 -0.8125 L 1.453125 -0.8125 L 1.453125 -5.625 L 0 -5.625 L 0 -6.421875 L 2.40625 -6.421875 L 2.40625 -4.8125 C 2.832031 -5.988281 3.648438 -6.578125 4.859375 -6.578125 C 5.191406 -6.578125 5.476562 -6.554688 5.71875 -6.515625 C 5.957031 -6.472656 6.179688 -6.398438 6.390625 -6.296875 Z M 6.078125 -5.53125 "/></g></g><g transform="translate(491.568716, 274.511502)"><g/></g><g transform="translate(499.281214, 274.511502)"><g><path d="M 6.625 -6.421875 L 3.15625 1.625 C 2.976562 2.070312 2.722656 2.363281 2.390625 2.5 C 2.066406 2.644531 1.707031 2.71875 1.3125 2.71875 C 0.863281 2.71875 0.421875 2.640625 -0.015625 2.484375 L 0.171875 1.671875 C 0.390625 1.765625 0.601562 1.828125 0.8125 1.859375 C 1.019531 1.898438 1.1875 1.921875 1.3125 1.921875 C 1.625 1.921875 1.835938 1.84375 1.953125 1.6875 C 2.066406 1.539062 2.171875 1.363281 2.265625 1.15625 L 2.65625 0.1875 L -0.21875 -6.421875 L 0.90625 -6.421875 L 3.21875 -0.8125 L 5.5 -6.421875 Z M 6.625 -6.421875 "/></g></g><g transform="translate(506.993712, 274.511502)"><g><path d="M 6.59375 -3.1875 C 6.59375 -2.6875 6.515625 -2.234375 6.359375 -1.828125 C 6.203125 -1.421875 5.972656 -1.070312 5.671875 -0.78125 C 5.378906 -0.488281 5.023438 -0.257812 4.609375 -0.09375 C 4.191406 0.0703125 3.726562 0.15625 3.21875 0.15625 C 2.71875 0.15625 2.257812 0.0703125 1.84375 -0.09375 C 1.4375 -0.257812 1.082031 -0.488281 0.78125 -0.78125 C 0.488281 -1.070312 0.257812 -1.421875 0.09375 -1.828125 C -0.0625 -2.234375 -0.140625 -2.6875 -0.140625 -3.1875 C -0.140625 -3.675781 -0.0625 -4.128906 0.09375 -4.546875 C 0.257812 -4.972656 0.488281 -5.332031 0.78125 -5.625 C 1.082031 -5.925781 1.4375 -6.160156 1.84375 -6.328125 C 2.257812 -6.492188 2.71875 -6.578125 3.21875 -6.578125 C 3.726562 -6.578125 4.191406 -6.492188 4.609375 -6.328125 C 5.023438 -6.160156 5.378906 -5.925781 5.671875 -5.625 C 5.972656 -5.332031 6.203125 -4.972656 6.359375 -4.546875 C 6.515625 -4.128906 6.59375 -3.675781 6.59375 -3.1875 Z M 5.65625 -3.1875 C 5.65625 -3.5625 5.597656 -3.898438 5.484375 -4.203125 C 5.378906 -4.515625 5.21875 -4.785156 5 -5.015625 C 4.789062 -5.253906 4.535156 -5.441406 4.234375 -5.578125 C 3.929688 -5.710938 3.59375 -5.78125 3.21875 -5.78125 C 2.84375 -5.78125 2.503906 -5.710938 2.203125 -5.578125 C 1.898438 -5.441406 1.644531 -5.253906 1.4375 -5.015625 C 1.226562 -4.785156 1.070312 -4.515625 0.96875 -4.203125 C 0.863281 -3.898438 0.8125 -3.5625 0.8125 -3.1875 C 0.8125 -2.820312 0.863281 -2.484375 0.96875 -2.171875 C 1.070312 -1.859375 1.226562 -1.585938 1.4375 -1.359375 C 1.644531 -1.140625 1.898438 -0.960938 2.203125 -0.828125 C 2.503906 -0.703125 2.84375 -0.640625 3.21875 -0.640625 C 3.59375 -0.640625 3.929688 -0.703125 4.234375 -0.828125 C 4.535156 -0.960938 4.789062 -1.140625 5 -1.359375 C 5.21875 -1.585938 5.378906 -1.859375 5.484375 -2.171875 C 5.597656 -2.484375 5.65625 -2.820312 5.65625 -3.1875 Z M 5.65625 -3.1875 "/></g></g><g transform="translate(514.70621, 274.511502)"><g><path d="M 0.34375 -6.421875 L 1.28125 -6.421875 L 1.28125 -2.453125 C 1.28125 -1.878906 1.40625 -1.429688 1.65625 -1.109375 C 1.90625 -0.796875 2.3125 -0.640625 2.875 -0.640625 C 3.21875 -0.640625 3.53125 -0.71875 3.8125 -0.875 C 4.09375 -1.039062 4.332031 -1.257812 4.53125 -1.53125 C 4.726562 -1.800781 4.878906 -2.109375 4.984375 -2.453125 C 5.085938 -2.804688 5.140625 -3.171875 5.140625 -3.546875 L 5.140625 -6.421875 L 6.09375 -6.421875 L 6.09375 0 L 5.140625 0 L 5.140625 -1.609375 C 4.691406 -0.429688 3.878906 0.15625 2.703125 0.15625 C 1.128906 0.15625 0.34375 -0.710938 0.34375 -2.453125 Z M 0.34375 -6.421875 "/></g></g><g transform="translate(522.418708, 274.511502)"><g><path d="M 4.203125 -1.28125 L 2.3125 2.578125 L 1.65625 2.578125 L 2.9375 -1.28125 Z M 4.203125 -1.28125 "/></g></g><g transform="translate(530.131207, 274.511502)"><g/></g><g transform="translate(537.843705, 274.511502)"><g><path d="M 6.421875 -3.203125 C 6.421875 -2.710938 6.34375 -2.257812 6.1875 -1.84375 C 6.039062 -1.4375 5.828125 -1.082031 5.546875 -0.78125 C 5.265625 -0.488281 4.921875 -0.257812 4.515625 -0.09375 C 4.117188 0.0703125 3.671875 0.15625 3.171875 0.15625 C 2.828125 0.15625 2.492188 0.09375 2.171875 -0.03125 C 1.859375 -0.15625 1.5625 -0.335938 1.28125 -0.578125 L 1.28125 0 L 0.34375 0 L 0.34375 -9 L 1.28125 -9 L 1.28125 -5.828125 C 1.5625 -6.066406 1.859375 -6.25 2.171875 -6.375 C 2.492188 -6.507812 2.828125 -6.578125 3.171875 -6.578125 C 3.671875 -6.578125 4.117188 -6.492188 4.515625 -6.328125 C 4.921875 -6.160156 5.265625 -5.925781 5.546875 -5.625 C 5.828125 -5.332031 6.039062 -4.976562 6.1875 -4.5625 C 6.34375 -4.144531 6.421875 -3.691406 6.421875 -3.203125 Z M 5.46875 -3.203125 C 5.46875 -3.578125 5.421875 -3.914062 5.328125 -4.21875 C 5.234375 -4.53125 5.085938 -4.800781 4.890625 -5.03125 C 4.703125 -5.257812 4.460938 -5.441406 4.171875 -5.578125 C 3.890625 -5.710938 3.554688 -5.78125 3.171875 -5.78125 C 2.453125 -5.78125 1.820312 -5.492188 1.28125 -4.921875 L 1.28125 -1.484375 C 1.5625 -1.179688 1.859375 -0.960938 2.171875 -0.828125 C 2.484375 -0.703125 2.816406 -0.640625 3.171875 -0.640625 C 3.554688 -0.640625 3.890625 -0.707031 4.171875 -0.84375 C 4.453125 -0.976562 4.6875 -1.160156 4.875 -1.390625 C 5.070312 -1.617188 5.21875 -1.890625 5.3125 -2.203125 C 5.414062 -2.515625 5.46875 -2.847656 5.46875 -3.203125 Z M 5.46875 -3.203125 "/></g></g><g transform="translate(545.556203, 274.511502)"><g><path d="M 6.625 -6.421875 L 3.15625 1.625 C 2.976562 2.070312 2.722656 2.363281 2.390625 2.5 C 2.066406 2.644531 1.707031 2.71875 1.3125 2.71875 C 0.863281 2.71875 0.421875 2.640625 -0.015625 2.484375 L 0.171875 1.671875 C 0.390625 1.765625 0.601562 1.828125 0.8125 1.859375 C 1.019531 1.898438 1.1875 1.921875 1.3125 1.921875 C 1.625 1.921875 1.835938 1.84375 1.953125 1.6875 C 2.066406 1.539062 2.171875 1.363281 2.265625 1.15625 L 2.65625 0.1875 L -0.21875 -6.421875 L 0.90625 -6.421875 L 3.21875 -0.8125 L 5.5 -6.421875 Z M 6.625 -6.421875 "/></g></g><g transform="translate(553.268701, 274.511502)"><g/></g><g transform="translate(560.981199, 274.511502)"><g><path d="M 6.625 -6.421875 L 3.15625 1.625 C 2.976562 2.070312 2.722656 2.363281 2.390625 2.5 C 2.066406 2.644531 1.707031 2.71875 1.3125 2.71875 C 0.863281 2.71875 0.421875 2.640625 -0.015625 2.484375 L 0.171875 1.671875 C 0.390625 1.765625 0.601562 1.828125 0.8125 1.859375 C 1.019531 1.898438 1.1875 1.921875 1.3125 1.921875 C 1.625 1.921875 1.835938 1.84375 1.953125 1.6875 C 2.066406 1.539062 2.171875 1.363281 2.265625 1.15625 L 2.65625 0.1875 L -0.21875 -6.421875 L 0.90625 -6.421875 L 3.21875 -0.8125 L 5.5 -6.421875 Z M 6.625 -6.421875 "/></g></g><g transform="translate(568.693697, 274.511502)"><g><path d="M 6.59375 -3.1875 C 6.59375 -2.6875 6.515625 -2.234375 6.359375 -1.828125 C 6.203125 -1.421875 5.972656 -1.070312 5.671875 -0.78125 C 5.378906 -0.488281 5.023438 -0.257812 4.609375 -0.09375 C 4.191406 0.0703125 3.726562 0.15625 3.21875 0.15625 C 2.71875 0.15625 2.257812 0.0703125 1.84375 -0.09375 C 1.4375 -0.257812 1.082031 -0.488281 0.78125 -0.78125 C 0.488281 -1.070312 0.257812 -1.421875 0.09375 -1.828125 C -0.0625 -2.234375 -0.140625 -2.6875 -0.140625 -3.1875 C -0.140625 -3.675781 -0.0625 -4.128906 0.09375 -4.546875 C 0.257812 -4.972656 0.488281 -5.332031 0.78125 -5.625 C 1.082031 -5.925781 1.4375 -6.160156 1.84375 -6.328125 C 2.257812 -6.492188 2.71875 -6.578125 3.21875 -6.578125 C 3.726562 -6.578125 4.191406 -6.492188 4.609375 -6.328125 C 5.023438 -6.160156 5.378906 -5.925781 5.671875 -5.625 C 5.972656 -5.332031 6.203125 -4.972656 6.359375 -4.546875 C 6.515625 -4.128906 6.59375 -3.675781 6.59375 -3.1875 Z M 5.65625 -3.1875 C 5.65625 -3.5625 5.597656 -3.898438 5.484375 -4.203125 C 5.378906 -4.515625 5.21875 -4.785156 5 -5.015625 C 4.789062 -5.253906 4.535156 -5.441406 4.234375 -5.578125 C 3.929688 -5.710938 3.59375 -5.78125 3.21875 -5.78125 C 2.84375 -5.78125 2.503906 -5.710938 2.203125 -5.578125 C 1.898438 -5.441406 1.644531 -5.253906 1.4375 -5.015625 C 1.226562 -4.785156 1.070312 -4.515625 0.96875 -4.203125 C 0.863281 -3.898438 0.8125 -3.5625 0.8125 -3.1875 C 0.8125 -2.820312 0.863281 -2.484375 0.96875 -2.171875 C 1.070312 -1.859375 1.226562 -1.585938 1.4375 -1.359375 C 1.644531 -1.140625 1.898438 -0.960938 2.203125 -0.828125 C 2.503906 -0.703125 2.84375 -0.640625 3.21875 -0.640625 C 3.59375 -0.640625 3.929688 -0.703125 4.234375 -0.828125 C 4.535156 -0.960938 4.789062 -1.140625 5 -1.359375 C 5.21875 -1.585938 5.378906 -1.859375 5.484375 -2.171875 C 5.597656 -2.484375 5.65625 -2.820312 5.65625 -3.1875 Z M 5.65625 -3.1875 "/></g></g><g transform="translate(576.406196, 274.511502)"><g><path d="M 0.34375 -6.421875 L 1.28125 -6.421875 L 1.28125 -2.453125 C 1.28125 -1.878906 1.40625 -1.429688 1.65625 -1.109375 C 1.90625 -0.796875 2.3125 -0.640625 2.875 -0.640625 C 3.21875 -0.640625 3.53125 -0.71875 3.8125 -0.875 C 4.09375 -1.039062 4.332031 -1.257812 4.53125 -1.53125 C 4.726562 -1.800781 4.878906 -2.109375 4.984375 -2.453125 C 5.085938 -2.804688 5.140625 -3.171875 5.140625 -3.546875 L 5.140625 -6.421875 L 6.09375 -6.421875 L 6.09375 0 L 5.140625 0 L 5.140625 -1.609375 C 4.691406 -0.429688 3.878906 0.15625 2.703125 0.15625 C 1.128906 0.15625 0.34375 -0.710938 0.34375 -2.453125 Z M 0.34375 -6.421875 "/></g></g><g transform="translate(584.118694, 274.511502)"><g><path d="M 3.859375 0 L 2.578125 0 L 2.578125 -1.28125 L 3.859375 -1.28125 Z M 3.859375 0 "/></g></g></g></svg>